# Blender v2.79 (sub 0) OBJ File: ''
# www.blender.org
mtllib cup1.mtl
o Cylinder
v 0.046362 -0.228046 -1.759366
v 0.046362 1.724375 -2.018764
v 0.241452 -0.228046 -1.740151
v 0.292059 1.724375 -1.994565
v 0.429046 -0.228046 -1.683246
v 0.528313 1.724375 -1.922898
v 0.601932 -0.228046 -1.590836
v 0.746046 1.724375 -1.806517
v 0.753469 -0.228046 -1.466473
v 0.936891 1.724375 -1.649895
v 0.877832 -0.228046 -1.314936
v 1.093513 1.724375 -1.459050
v 0.970242 -0.228046 -1.142049
v 1.209894 1.724375 -1.241317
v 1.027147 -0.228046 -0.954456
v 1.281561 1.724375 -1.005062
v 1.046362 -0.228046 -0.759366
v 1.305760 1.724375 -0.759366
v 1.027148 -0.228046 -0.564276
v 1.281561 1.724375 -0.513670
v 0.970242 -0.228046 -0.376683
v 1.209894 1.724375 -0.277415
v 0.877832 -0.228046 -0.203796
v 1.093513 1.724375 -0.059682
v 0.753469 -0.228046 -0.052259
v 0.936891 1.724375 0.131163
v 0.601932 -0.228046 0.072104
v 0.746046 1.724375 0.287785
v 0.429045 -0.228046 0.164514
v 0.528313 1.724375 0.404166
v 0.241452 -0.228046 0.221419
v 0.292058 1.724375 0.475833
v 0.046362 -0.228046 0.240634
v 0.046362 1.724375 0.500032
v -0.148729 -0.228046 0.221419
v -0.199335 1.724375 0.475833
v -0.336322 -0.228046 0.164513
v -0.435589 1.724375 0.404166
v -0.509209 -0.228046 0.072103
v -0.653323 1.724375 0.287785
v -0.660745 -0.228046 -0.052260
v -0.844167 1.724375 0.131162
v -0.785108 -0.228046 -0.203796
v -1.000790 1.724375 -0.059683
v -0.877518 -0.228046 -0.376683
v -1.117170 1.724375 -0.277416
v -0.934423 -0.228046 -0.564277
v -1.188837 1.724375 -0.513671
v -0.953638 -0.228046 -0.759367
v -1.213036 1.724375 -0.759367
v -0.934423 -0.228046 -0.954457
v -1.188837 1.724375 -1.005064
v -0.877517 -0.228046 -1.142051
v -1.117169 1.724375 -1.241318
v -0.785107 -0.228046 -1.314937
v -1.000788 1.724375 -1.459051
v -0.660744 -0.228046 -1.466474
v -0.844166 1.724375 -1.649896
v -0.509207 -0.228046 -1.590836
v -0.653321 1.724375 -1.806518
v -0.336320 -0.228046 -1.683246
v -0.435587 1.724375 -1.922899
v -0.148727 -0.228046 -1.740152
v -0.199332 1.724375 -1.994565
v 0.219377 1.724375 -1.629169
v 0.046362 1.724375 -1.646210
v 0.385743 1.724375 -1.578703
v 0.539066 1.724375 -1.496750
v 0.673455 1.724375 -1.386459
v 0.783746 1.724375 -1.252070
v 0.865699 1.724375 -1.098747
v 0.916166 1.724375 -0.932381
v 0.933206 1.724375 -0.759366
v 0.916166 1.724375 -0.586352
v 0.865699 1.724375 -0.419986
v 0.783746 1.724375 -0.266662
v 0.673455 1.724375 -0.132273
v 0.539066 1.724375 -0.021982
v 0.385742 1.724375 0.059971
v 0.219377 1.724375 0.110437
v 0.046362 1.724375 0.127478
v -0.126653 1.724375 0.110437
v -0.293019 1.724375 0.059971
v -0.446342 1.724375 -0.021983
v -0.580732 1.724375 -0.132273
v -0.691022 1.724375 -0.266663
v -0.772975 1.724375 -0.419986
v -0.823441 1.724375 -0.586352
v -0.840482 1.724375 -0.759367
v -0.823441 1.724375 -0.932382
v -0.772974 1.724375 -1.098747
v -0.691021 1.724375 -1.252071
v -0.580730 1.724375 -1.386460
v -0.446341 1.724375 -1.496750
v -0.293017 1.724375 -1.578703
v -0.126651 1.724375 -1.629170
v 0.219377 1.724375 -1.629169
v 0.046362 1.724375 -1.646210
v 0.385743 1.724375 -1.578703
v 0.539066 1.724375 -1.496750
v 0.673455 1.724375 -1.386459
v 0.783746 1.724375 -1.252070
v 0.865699 1.724375 -1.098747
v 0.916166 1.724375 -0.932381
v 0.933206 1.724375 -0.759366
v 0.916166 1.724375 -0.586352
v 0.865699 1.724375 -0.419986
v 0.783746 1.724375 -0.266662
v 0.673455 1.724375 -0.132273
v 0.539066 1.724375 -0.021982
v 0.385742 1.724375 0.059971
v 0.219377 1.724375 0.110437
v 0.046362 1.724375 0.127478
v -0.126653 1.724375 0.110437
v -0.293019 1.724375 0.059971
v -0.446342 1.724375 -0.021983
v -0.580732 1.724375 -0.132273
v -0.691022 1.724375 -0.266663
v -0.772975 1.724375 -0.419986
v -0.823441 1.724375 -0.586352
v -0.840482 1.724375 -0.759367
v -0.823441 1.724375 -0.932382
v -0.772974 1.724375 -1.098747
v -0.691021 1.724375 -1.252071
v -0.580730 1.724375 -1.386460
v -0.446341 1.724375 -1.496750
v -0.293017 1.724375 -1.578703
v -0.126651 1.724375 -1.629170
v 0.219377 0.376973 -1.629169
v 0.046362 0.376973 -1.646210
v 0.385743 0.376973 -1.578703
v 0.539066 0.376973 -1.496750
v 0.673455 0.376973 -1.386459
v 0.783746 0.376973 -1.252070
v 0.865699 0.376973 -1.098747
v 0.916166 0.376973 -0.932381
v 0.933206 0.376973 -0.759366
v 0.916166 0.376973 -0.586352
v 0.865699 0.376973 -0.419986
v 0.783746 0.376973 -0.266662
v 0.673455 0.376973 -0.132273
v 0.539066 0.376973 -0.021982
v 0.385742 0.376973 0.059971
v 0.219377 0.376973 0.110437
v 0.046362 0.376973 0.127478
v -0.126653 0.376973 0.110437
v -0.293019 0.376973 0.059971
v -0.446342 0.376973 -0.021983
v -0.580732 0.376973 -0.132273
v -0.691022 0.376973 -0.266663
v -0.772975 0.376973 -0.419986
v -0.823441 0.376973 -0.586352
v -0.840482 0.376973 -0.759367
v -0.823441 0.376973 -0.932382
v -0.772974 0.376973 -1.098747
v -0.691021 0.376973 -1.252071
v -0.580730 0.376973 -1.386460
v -0.446341 0.376973 -1.496750
v -0.293017 0.376973 -1.578703
v -0.126651 0.376973 -1.629170
vn 0.0972 -0.1311 -0.9866
vn 0.2878 -0.1311 -0.9487
vn 0.4673 -0.1311 -0.8743
vn 0.6289 -0.1311 -0.7663
vn 0.7663 -0.1311 -0.6289
vn 0.8743 -0.1311 -0.4673
vn 0.9487 -0.1311 -0.2878
vn 0.9866 -0.1311 -0.0972
vn 0.9866 -0.1311 0.0972
vn 0.9487 -0.1311 0.2878
vn 0.8743 -0.1311 0.4673
vn 0.7663 -0.1311 0.6289
vn 0.6289 -0.1311 0.7663
vn 0.4673 -0.1311 0.8743
vn 0.2878 -0.1311 0.9487
vn 0.0972 -0.1311 0.9866
vn -0.0972 -0.1311 0.9866
vn -0.2878 -0.1311 0.9487
vn -0.4673 -0.1311 0.8743
vn -0.6289 -0.1311 0.7663
vn -0.7663 -0.1311 0.6289
vn -0.8743 -0.1311 0.4673
vn -0.9487 -0.1311 0.2878
vn -0.9866 -0.1311 0.0972
vn -0.9866 -0.1311 -0.0972
vn -0.9487 -0.1311 -0.2878
vn -0.8743 -0.1311 -0.4673
vn -0.7663 -0.1311 -0.6289
vn -0.6289 -0.1311 -0.7663
vn -0.4673 -0.1311 -0.8743
vn -0.0000 1.0000 0.0000
vn -0.2878 -0.1311 -0.9487
vn -0.0972 -0.1311 -0.9866
vn 0.0000 -1.0000 0.0000
vn 0.0000 0.0000 1.0000
vn 0.9569 0.0000 -0.2903
vn -0.9569 0.0000 -0.2903
vn 0.9952 0.0000 -0.0980
vn -0.8819 0.0000 -0.4714
vn 0.9952 0.0000 0.0980
vn -0.7730 0.0000 -0.6344
vn 0.9569 0.0000 0.2903
vn -0.6344 0.0000 -0.7730
vn 0.8819 0.0000 0.4714
vn -0.4714 0.0000 -0.8819
vn -0.0980 0.0000 0.9952
vn 0.7730 0.0000 0.6344
vn -0.2903 0.0000 -0.9569
vn -0.2903 0.0000 0.9569
vn 0.6344 0.0000 0.7730
vn -0.0980 0.0000 -0.9952
vn -0.4714 0.0000 0.8819
vn 0.4714 0.0000 0.8819
vn 0.0980 0.0000 -0.9952
vn -0.6344 0.0000 0.7730
vn 0.2903 0.0000 0.9569
vn 0.2903 0.0000 -0.9569
vn -0.7730 0.0000 0.6344
vn 0.0980 0.0000 0.9952
vn 0.4714 0.0000 -0.8819
vn -0.8819 0.0000 0.4714
vn 0.6344 0.0000 -0.7730
vn -0.9569 0.0000 0.2903
vn 0.7730 0.0000 -0.6344
vn -0.9952 0.0000 0.0980
vn 0.8819 0.0000 -0.4714
vn -0.9952 0.0000 -0.0980
usemtl None
s off
f 2//1 3//1 1//1
f 4//2 5//2 3//2
f 6//3 7//3 5//3
f 8//4 9//4 7//4
f 10//5 11//5 9//5
f 12//6 13//6 11//6
f 14//7 15//7 13//7
f 16//8 17//8 15//8
f 18//9 19//9 17//9
f 20//10 21//10 19//10
f 22//11 23//11 21//11
f 24//12 25//12 23//12
f 26//13 27//13 25//13
f 28//14 29//14 27//14
f 30//15 31//15 29//15
f 32//16 33//16 31//16
f 34//17 35//17 33//17
f 36//18 37//18 35//18
f 38//19 39//19 37//19
f 40//20 41//20 39//20
f 42//21 43//21 41//21
f 44//22 45//22 43//22
f 46//23 47//23 45//23
f 48//24 49//24 47//24
f 50//25 51//25 49//25
f 52//26 53//26 51//26
f 54//27 55//27 53//27
f 56//28 57//28 55//28
f 58//29 59//29 57//29
f 60//30 61//30 59//30
f 6//31 68//31 8//31
f 62//32 63//32 61//32
f 64//33 1//33 63//33
f 15//34 31//34 47//34
f 85//35 116//35 117//35
f 24//31 77//31 26//31
f 44//31 85//31 86//31
f 60//31 95//31 62//31
f 16//31 73//31 18//31
f 34//31 82//31 36//31
f 54//31 90//31 91//31
f 8//31 69//31 10//31
f 26//31 78//31 28//31
f 44//31 87//31 46//31
f 64//31 95//31 96//31
f 18//31 74//31 20//31
f 36//31 83//31 38//31
f 54//31 92//31 56//31
f 10//31 70//31 12//31
f 28//31 79//31 30//31
f 48//31 87//31 88//31
f 2//31 65//31 4//31
f 64//31 66//31 2//31
f 20//31 75//31 22//31
f 38//31 84//31 40//31
f 58//31 92//31 93//31
f 14//31 70//31 71//31
f 30//31 80//31 32//31
f 48//31 89//31 50//31
f 6//31 65//31 67//31
f 22//31 76//31 24//31
f 40//31 85//31 42//31
f 60//31 93//31 94//31
f 14//31 72//31 16//31
f 34//31 80//31 81//31
f 52//31 89//31 90//31
f 119//36 152//36 120//36
f 72//35 103//35 104//35
f 86//35 117//35 118//35
f 73//35 104//35 105//35
f 87//35 118//35 119//35
f 74//35 105//35 106//35
f 88//35 119//35 120//35
f 75//35 106//35 107//35
f 89//35 120//35 121//35
f 76//35 107//35 108//35
f 90//35 121//35 122//35
f 77//35 108//35 109//35
f 91//35 122//35 123//35
f 78//35 109//35 110//35
f 92//35 123//35 124//35
f 79//35 110//35 111//35
f 65//35 98//35 97//35
f 93//35 124//35 125//35
f 80//35 111//35 112//35
f 67//35 97//35 99//35
f 94//35 125//35 126//35
f 81//35 112//35 113//35
f 68//35 99//35 100//35
f 95//35 126//35 127//35
f 82//35 113//35 114//35
f 69//35 100//35 101//35
f 96//35 127//35 128//35
f 83//35 114//35 115//35
f 70//35 101//35 102//35
f 66//35 128//35 98//35
f 84//35 115//35 116//35
f 71//35 102//35 103//35
f 155//31 147//31 139//31
f 106//37 139//37 107//37
f 120//38 153//38 121//38
f 107//39 140//39 108//39
f 121//40 154//40 122//40
f 108//41 141//41 109//41
f 122//42 155//42 123//42
f 109//43 142//43 110//43
f 123//44 156//44 124//44
f 110//45 143//45 111//45
f 98//46 129//46 97//46
f 124//47 157//47 125//47
f 111//48 144//48 112//48
f 97//49 131//49 99//49
f 125//50 158//50 126//50
f 112//51 145//51 113//51
f 99//52 132//52 100//52
f 126//53 159//53 127//53
f 113//54 146//54 114//54
f 100//55 133//55 101//55
f 127//56 160//56 128//56
f 114//57 147//57 115//57
f 101//58 134//58 102//58
f 128//59 130//59 98//59
f 115//60 148//60 116//60
f 102//61 135//61 103//61
f 116//62 149//62 117//62
f 103//63 136//63 104//63
f 117//64 150//64 118//64
f 104//65 137//65 105//65
f 118//66 151//66 119//66
f 105//67 138//67 106//67
f 2//1 4//1 3//1
f 4//2 6//2 5//2
f 6//3 8//3 7//3
f 8//4 10//4 9//4
f 10//5 12//5 11//5
f 12//6 14//6 13//6
f 14//7 16//7 15//7
f 16//8 18//8 17//8
f 18//9 20//9 19//9
f 20//10 22//10 21//10
f 22//11 24//11 23//11
f 24//12 26//12 25//12
f 26//13 28//13 27//13
f 28//14 30//14 29//14
f 30//15 32//15 31//15
f 32//16 34//16 33//16
f 34//17 36//17 35//17
f 36//18 38//18 37//18
f 38//19 40//19 39//19
f 40//20 42//20 41//20
f 42//21 44//21 43//21
f 44//22 46//22 45//22
f 46//23 48//23 47//23
f 48//24 50//24 49//24
f 50//25 52//25 51//25
f 52//26 54//26 53//26
f 54//27 56//27 55//27
f 56//28 58//28 57//28
f 58//29 60//29 59//29
f 60//30 62//30 61//30
f 6//31 67//31 68//31
f 62//32 64//32 63//32
f 64//33 2//33 1//33
f 63//34 1//34 3//34
f 3//34 5//34 7//34
f 7//34 9//34 11//34
f 11//34 13//34 7//34
f 13//34 15//34 7//34
f 15//34 17//34 19//34
f 19//34 21//34 15//34
f 21//34 23//34 15//34
f 23//34 25//34 31//34
f 25//34 27//34 31//34
f 27//34 29//34 31//34
f 31//34 33//34 35//34
f 35//34 37//34 39//34
f 39//34 41//34 43//34
f 43//34 45//34 47//34
f 47//34 49//34 51//34
f 51//34 53//34 55//34
f 55//34 57//34 63//34
f 57//34 59//34 63//34
f 59//34 61//34 63//34
f 63//34 3//34 7//34
f 31//34 35//34 47//34
f 35//34 39//34 47//34
f 39//34 43//34 47//34
f 47//34 51//34 63//34
f 51//34 55//34 63//34
f 63//34 7//34 15//34
f 15//34 23//34 31//34
f 63//34 15//34 47//34
f 85//35 84//35 116//35
f 24//31 76//31 77//31
f 44//31 42//31 85//31
f 60//31 94//31 95//31
f 16//31 72//31 73//31
f 34//31 81//31 82//31
f 54//31 52//31 90//31
f 8//31 68//31 69//31
f 26//31 77//31 78//31
f 44//31 86//31 87//31
f 64//31 62//31 95//31
f 18//31 73//31 74//31
f 36//31 82//31 83//31
f 54//31 91//31 92//31
f 10//31 69//31 70//31
f 28//31 78//31 79//31
f 48//31 46//31 87//31
f 2//31 66//31 65//31
f 64//31 96//31 66//31
f 20//31 74//31 75//31
f 38//31 83//31 84//31
f 58//31 56//31 92//31
f 14//31 12//31 70//31
f 30//31 79//31 80//31
f 48//31 88//31 89//31
f 6//31 4//31 65//31
f 22//31 75//31 76//31
f 40//31 84//31 85//31
f 60//31 58//31 93//31
f 14//31 71//31 72//31
f 34//31 32//31 80//31
f 52//31 50//31 89//31
f 119//36 151//36 152//36
f 72//35 71//35 103//35
f 86//35 85//35 117//35
f 73//35 72//35 104//35
f 87//35 86//35 118//35
f 74//35 73//35 105//35
f 88//35 87//35 119//35
f 75//35 74//35 106//35
f 89//35 88//35 120//35
f 76//35 75//35 107//35
f 90//35 89//35 121//35
f 77//35 76//35 108//35
f 91//35 90//35 122//35
f 78//35 77//35 109//35
f 92//35 91//35 123//35
f 79//35 78//35 110//35
f 65//35 66//35 98//35
f 93//35 92//35 124//35
f 80//35 79//35 111//35
f 67//35 65//35 97//35
f 94//35 93//35 125//35
f 81//35 80//35 112//35
f 68//35 67//35 99//35
f 95//35 94//35 126//35
f 82//35 81//35 113//35
f 69//35 68//35 100//35
f 96//35 95//35 127//35
f 83//35 82//35 114//35
f 70//35 69//35 101//35
f 66//35 96//35 128//35
f 84//35 83//35 115//35
f 71//35 70//35 102//35
f 131//31 129//31 130//31
f 130//31 160//31 131//31
f 160//31 159//31 131//31
f 159//31 158//31 155//31
f 158//31 157//31 155//31
f 157//31 156//31 155//31
f 155//31 154//31 153//31
f 153//31 152//31 151//31
f 151//31 150//31 149//31
f 149//31 148//31 151//31
f 148//31 147//31 151//31
f 147//31 146//31 143//31
f 146//31 145//31 143//31
f 145//31 144//31 143//31
f 143//31 142//31 141//31
f 141//31 140//31 139//31
f 139//31 138//31 135//31
f 138//31 137//31 135//31
f 137//31 136//31 135//31
f 135//31 134//31 133//31
f 133//31 132//31 131//31
f 155//31 153//31 147//31
f 153//31 151//31 147//31
f 143//31 141//31 147//31
f 141//31 139//31 147//31
f 135//31 133//31 131//31
f 131//31 159//31 155//31
f 139//31 135//31 131//31
f 131//31 155//31 139//31
f 106//37 138//37 139//37
f 120//38 152//38 153//38
f 107//39 139//39 140//39
f 121//40 153//40 154//40
f 108//41 140//41 141//41
f 122//42 154//42 155//42
f 109//43 141//43 142//43
f 123//44 155//44 156//44
f 110//45 142//45 143//45
f 98//46 130//46 129//46
f 124//47 156//47 157//47
f 111//48 143//48 144//48
f 97//49 129//49 131//49
f 125//50 157//50 158//50
f 112//51 144//51 145//51
f 99//52 131//52 132//52
f 126//53 158//53 159//53
f 113//54 145//54 146//54
f 100//55 132//55 133//55
f 127//56 159//56 160//56
f 114//57 146//57 147//57
f 101//58 133//58 134//58
f 128//59 160//59 130//59
f 115//60 147//60 148//60
f 102//61 134//61 135//61
f 116//62 148//62 149//62
f 103//63 135//63 136//63
f 117//64 149//64 150//64
f 104//65 136//65 137//65
f 118//66 150//66 151//66
f 105//67 137//67 138//67
